<svg width="2458" height="454" viewBox="0 0 2458 454" fill="none" xmlns="http://www.w3.org/2000/svg">
<path d="M1833.96 1.73104H1904.17V447.165H1833.96V1.73104Z" fill="black"/>
<path d="M1690.12 1.73104H1760.33V447.165H1690.12V1.73104Z" fill="black"/>
<path d="M1464.81 453.091C1438.73 453.091 1414.87 448.703 1393.21 439.927C1371.55 431.151 1352.99 419.303 1337.52 404.384C1322.5 389.027 1310.78 371.036 1302.39 350.413C1293.99 329.35 1289.79 306.972 1289.79 283.277C1289.79 259.143 1294.21 236.545 1303.05 215.483C1311.89 194.421 1324.04 176.211 1339.51 160.853C1354.98 145.495 1373.1 133.428 1393.87 124.652C1415.09 115.438 1437.85 110.83 1462.15 110.83C1486.46 110.83 1509 114.999 1529.77 123.336C1550.99 131.673 1569.11 143.301 1584.14 158.22C1599.16 173.139 1610.87 190.91 1619.27 211.534C1628.11 232.157 1632.53 254.536 1632.53 278.67V306.314H1358.07C1362.94 331.764 1374.65 352.168 1393.21 367.526C1411.77 382.883 1435.64 390.562 1464.81 390.562C1487.35 390.562 1506.79 385.297 1523.15 374.766C1539.94 363.796 1552.76 349.316 1561.6 331.325L1619.93 363.576C1605.35 390.782 1585.02 412.502 1558.94 428.738C1533.31 444.973 1501.93 453.091 1464.81 453.091ZM1462.15 172.7C1437.41 172.7 1415.97 179.502 1397.85 193.104C1380.17 206.707 1368.02 224.478 1361.39 246.418H1560.27C1554.97 222.723 1543.7 204.513 1526.46 191.788C1509.22 179.063 1487.79 172.7 1462.15 172.7Z" fill="black"/>
<path d="M1056.66 117.414H1113.01V39.7475L1184.61 0.914062V117.414H1254.88V180.601H1184.61V311.581C1184.61 326.5 1185.27 338.567 1186.6 347.782C1188.37 356.558 1191.68 363.359 1196.54 368.186C1201.85 373.012 1208.92 376.303 1217.76 378.059C1227.04 379.375 1239.41 380.033 1254.88 380.033V446.511H1244.28C1219.08 446.511 1198.09 444.317 1181.3 439.929C1164.5 435.541 1151.02 428.301 1140.86 418.208C1130.69 407.677 1123.4 393.855 1118.98 376.742C1115 359.629 1113.01 338.128 1113.01 312.239V180.601H1056.66V117.414Z" fill="black"/>
<path d="M815.376 279.329L694.059 117.413H780.24L859.793 226.015L940.008 117.413H1024.2L903.547 279.329L1031.49 446.51H944.649L858.467 333.301L775.6 446.51H688.755L815.376 279.329Z" fill="black"/>
<path d="M511.756 453.091C487.891 453.091 465.572 448.703 444.8 439.927C424.028 431.151 405.686 419.084 389.776 403.726C374.307 387.93 362.153 369.72 353.314 349.096C344.475 328.034 340.056 305.655 340.056 281.961C340.056 257.827 344.475 235.448 353.314 214.825C362.153 193.763 374.307 175.553 389.776 160.195C405.686 144.837 424.028 132.77 444.8 123.994C465.572 115.218 487.891 110.83 511.756 110.83C535.622 110.83 557.941 115.218 578.713 123.994C599.927 132.77 618.268 144.837 633.737 160.195C649.205 175.553 661.359 193.763 670.198 214.825C679.479 235.448 684.12 257.827 684.12 281.961C684.12 305.655 679.479 328.034 670.198 349.096C661.359 369.72 649.205 387.93 633.737 403.726C618.268 419.084 599.927 431.151 578.713 439.927C557.941 448.703 535.622 453.091 511.756 453.091ZM511.756 387.271C525.899 387.271 539.158 384.639 551.532 379.373C563.907 373.669 574.735 365.99 584.016 356.336C593.298 346.683 600.59 335.494 605.893 322.768C611.197 310.043 613.849 296.441 613.849 281.961C613.849 267.48 611.197 253.878 605.893 241.153C600.59 228.427 593.298 217.238 584.016 207.585C574.735 197.931 563.907 190.472 551.532 185.206C539.158 179.502 525.899 176.65 511.756 176.65C497.614 176.65 484.355 179.502 471.98 185.206C459.605 190.472 448.777 197.931 439.496 207.585C430.657 217.238 423.586 228.427 418.282 241.153C412.979 253.878 410.327 267.48 410.327 281.961C410.327 296.441 412.979 310.043 418.282 322.768C423.586 335.494 430.657 346.683 439.496 356.336C448.777 365.99 459.605 373.669 471.98 379.373C484.355 384.639 497.614 387.271 511.756 387.271Z" fill="black"/>
<path d="M0 117.413H74.9119L163.083 355.021L249.927 117.413H323.513L198.218 446.51H127.284L0 117.413Z" fill="black"/>
<path d="M1992.36 98.6384C1985.57 98.6384 1979.22 97.3463 1973.31 94.7621C1967.39 92.264 1962.22 88.8184 1957.78 84.4253C1953.43 80.0321 1949.95 74.9068 1947.34 69.0493C1944.82 63.1918 1943.56 56.9036 1943.56 50.1847C1943.56 43.4657 1944.82 37.1775 1947.34 31.32C1949.95 25.4625 1953.43 20.3371 1957.78 15.944C1962.22 11.5509 1967.39 8.10527 1973.31 5.60721C1979.22 3.02302 1985.57 1.73092 1992.36 1.73092C1999.15 1.73092 2005.5 3.02302 2011.41 5.60721C2017.33 8.10527 2022.46 11.5509 2026.81 15.944C2031.25 20.3371 2034.73 25.4625 2037.25 31.32C2039.86 37.1775 2041.16 43.4657 2041.16 50.1847C2041.16 56.9036 2039.86 63.1918 2037.25 69.0493C2034.73 74.9068 2031.25 80.0321 2026.81 84.4253C2022.46 88.8184 2017.33 92.264 2011.41 94.7621C2005.5 97.3463 1999.15 98.6384 1992.36 98.6384ZM1992.36 87.3971C1997.58 87.3971 2002.41 86.4065 2006.84 84.4253C2011.37 82.4441 2015.28 79.7737 2018.59 76.4143C2021.89 73.0548 2024.5 69.1354 2026.42 64.6562C2028.33 60.0907 2029.29 55.2669 2029.29 50.1847C2029.29 45.1024 2028.33 40.3216 2026.42 35.8423C2024.5 31.2769 2021.89 27.3145 2018.59 23.955C2015.28 20.5956 2011.37 17.9252 2006.84 15.944C2002.41 13.9628 1997.58 12.9722 1992.36 12.9722C1987.14 12.9722 1982.27 13.9628 1977.75 15.944C1973.22 17.9252 1969.31 20.5956 1966 23.955C1962.78 27.3145 1960.22 31.2769 1958.3 35.8423C1956.48 40.3216 1955.56 45.1024 1955.56 50.1847C1955.56 55.2669 1956.48 60.0907 1958.3 64.6562C1960.22 69.1354 1962.78 73.0548 1966 76.4143C1969.31 79.7737 1973.22 82.4441 1977.75 84.4253C1982.27 86.4065 1987.14 87.3971 1992.36 87.3971ZM1973.18 25.3763H1994.06C1997.28 25.3763 2000.19 25.8501 2002.8 26.7977C2005.41 27.659 2007.58 28.865 2009.32 30.4155C2011.06 31.966 2012.41 33.7319 2013.37 35.7131C2014.33 37.6944 2014.8 39.7617 2014.8 41.9152C2014.8 45.5331 2013.93 48.7203 2012.19 51.4767C2010.54 54.2332 2007.93 56.2144 2004.37 57.4204L2014.54 73.7009H2000.71L1987.53 50.3139H1993.14C1995.67 50.3139 1997.8 49.6678 1999.54 48.3757C2001.28 46.9975 2002.15 45.0593 2002.15 42.5613C2002.15 39.9771 2001.23 38.1681 1999.41 37.1344C1997.67 36.1008 1995.54 35.5839 1993.01 35.5839H1985.44V73.7009H1973.18V25.3763Z" fill="black"/>
<g clip-path="url(#clip0_328_182)">
<path d="M2398.85 53.5363L2135.34 0.914062C2102.67 0.914062 2076.19 27.4018 2076.19 60.0666V361.404C2076.19 394.069 2102.67 420.557 2135.34 420.557L2274.99 392.669C2274.99 392.669 2357.57 385.903 2425.3 453.091C2425.3 453.091 2426.63 403.976 2426.71 356.798C2447.27 344.666 2458 326.855 2458 308.782V112.689C2458 88.8577 2430.75 61.035 2398.85 53.5363ZM2090.98 60.0666C2090.98 36.0653 2110.14 16.4481 2133.98 15.7153L2395.69 67.9841C2422.46 74.3836 2443.2 97.2202 2443.2 112.689V240.547C2443.2 253.961 2434.46 266.813 2419.18 275.829L2411.92 280.122V288.55C2411.86 311.596 2411.53 335.257 2411.19 353.304C2356.71 312.996 2299.56 309.45 2281.47 309.45C2276.83 309.45 2274.08 309.659 2273.76 309.685L2272.91 309.764L2133.96 337.508C2110.11 336.775 2090.95 317.171 2090.95 293.156V60.0666H2090.98Z" fill="#593CFB"/>
<path d="M2363.32 172.158V154.442H2375.56V137.591L2395.29 126.789V154.442H2408.83V172.158H2395.29V195.058C2395.29 206.293 2396.73 208.021 2408.83 208.021V226.457H2405.95C2383.05 226.457 2375.56 218.679 2375.56 195.202V172.158H2363.32Z" fill="#593CFB"/>
<path d="M2313.2 227.895C2297.93 227.895 2278.49 215.796 2278.49 190.447C2278.49 164.954 2297.21 153 2313.49 153C2322.85 153 2330.19 156.457 2334.95 161.498V154.44H2354.68V226.454H2334.95V218.389C2330.19 224.006 2322.56 227.895 2313.2 227.895ZM2317.09 209.747C2327.74 209.747 2335.52 200.961 2335.52 190.303C2335.52 179.645 2327.74 171.004 2317.09 171.004C2306.14 171.004 2297.79 179.213 2297.79 190.303C2297.79 201.393 2306.14 209.747 2317.09 209.747Z" fill="#593CFB"/>
<path d="M2203.85 226.453V121.312H2223.44V162.361C2228.19 156.599 2235.1 152.999 2243.31 152.999C2260.31 152.999 2270.54 163.945 2270.54 182.525V226.453H2250.52V185.261C2250.52 175.467 2246.05 169.85 2237.27 169.85C2229.78 169.85 2223.58 175.035 2223.58 187.133V226.453H2203.85Z" fill="#593CFB"/>
<path d="M2161.92 227.895C2141.18 227.895 2124.61 211.187 2124.61 190.447C2124.61 169.707 2141.18 153 2161.92 153C2178.33 153 2191.01 162.362 2196.63 175.756L2179.05 183.246C2176.32 176.477 2169.69 171.724 2162.06 171.724C2151.69 171.724 2143.62 180.077 2143.62 190.447C2143.62 200.817 2151.69 209.171 2162.06 209.171C2169.69 209.171 2176.32 204.418 2179.05 197.649L2196.63 205.138C2191.01 218.533 2178.33 227.895 2161.92 227.895Z" fill="#593CFB"/>
</g>
<defs>
<clipPath id="clip0_328_182">
<rect width="381.809" height="452.177" fill="white" transform="translate(2076.19 0.914062)"/>
</clipPath>
</defs>
</svg>
