<svg width="2458" height="453" viewBox="0 0 2458 453" fill="none" xmlns="http://www.w3.org/2000/svg">
<path d="M1833.96 0.81698H1904.17V446.251H1833.96V0.81698Z" fill="#EDEDED"/>
<path d="M1690.12 0.81698H1760.33V446.251H1690.12V0.81698Z" fill="#EDEDED"/>
<path d="M1464.81 452.177C1438.73 452.177 1414.87 447.789 1393.21 439.013C1371.55 430.237 1352.99 418.389 1337.52 403.47C1322.5 388.113 1310.78 370.122 1302.39 349.498C1293.99 328.436 1289.79 306.058 1289.79 282.363C1289.79 258.229 1294.21 235.631 1303.05 214.569C1311.89 193.507 1324.04 175.297 1339.51 159.939C1354.98 144.581 1373.1 132.514 1393.87 123.738C1415.09 114.524 1437.85 109.916 1462.15 109.916C1486.46 109.916 1509 114.085 1529.77 122.422C1550.99 130.759 1569.11 142.387 1584.14 157.306C1599.16 172.225 1610.87 189.996 1619.27 210.62C1628.11 231.243 1632.53 253.622 1632.53 277.755V305.4H1358.07C1362.94 330.85 1374.65 351.254 1393.21 366.612C1411.77 381.969 1435.64 389.648 1464.81 389.648C1487.35 389.648 1506.79 384.383 1523.15 373.852C1539.94 362.882 1552.76 348.401 1561.6 330.411L1619.93 362.662C1605.35 389.868 1585.02 411.588 1558.94 427.823C1533.31 444.059 1501.93 452.177 1464.81 452.177ZM1462.15 171.786C1437.41 171.786 1415.97 178.588 1397.85 192.19C1380.17 205.793 1368.02 223.564 1361.39 245.504H1560.27C1554.97 221.809 1543.7 203.599 1526.46 190.874C1509.22 178.149 1487.79 171.786 1462.15 171.786Z" fill="#EDEDED"/>
<path d="M1056.66 116.5H1113.01V38.8334L1184.61 0V116.5H1254.88V179.687H1184.61V310.667C1184.61 325.586 1185.27 337.653 1186.6 346.868C1188.37 355.644 1191.68 362.445 1196.54 367.272C1201.85 372.098 1208.92 375.389 1217.76 377.145C1227.04 378.461 1239.41 379.119 1254.88 379.119V445.597H1244.28C1219.08 445.597 1198.09 443.403 1181.3 439.015C1164.5 434.627 1151.02 427.387 1140.86 417.294C1130.69 406.763 1123.4 392.941 1118.98 375.828C1115 358.715 1113.01 337.214 1113.01 311.325V179.687H1056.66V116.5Z" fill="#EDEDED"/>
<path d="M815.376 278.415L694.059 116.499H780.24L859.793 225.101L940.008 116.499H1024.2L903.547 278.415L1031.49 445.596H944.649L858.467 332.387L775.6 445.596H688.755L815.376 278.415Z" fill="#EDEDED"/>
<path d="M511.756 452.177C487.891 452.177 465.572 447.789 444.8 439.013C424.028 430.237 405.686 418.17 389.776 402.812C374.307 387.016 362.153 368.805 353.314 348.182C344.475 327.12 340.056 304.741 340.056 281.046C340.056 256.913 344.475 234.534 353.314 213.911C362.153 192.849 374.307 174.639 389.776 159.281C405.686 143.923 424.028 131.856 444.8 123.08C465.572 114.304 487.891 109.916 511.756 109.916C535.622 109.916 557.941 114.304 578.713 123.08C599.927 131.856 618.268 143.923 633.737 159.281C649.205 174.639 661.359 192.849 670.198 213.911C679.479 234.534 684.12 256.913 684.12 281.046C684.12 304.741 679.479 327.12 670.198 348.182C661.359 368.805 649.205 387.016 633.737 402.812C618.268 418.17 599.927 430.237 578.713 439.013C557.941 447.789 535.622 452.177 511.756 452.177ZM511.756 386.357C525.899 386.357 539.158 383.725 551.532 378.459C563.907 372.755 574.735 365.076 584.016 355.422C593.298 345.769 600.59 334.579 605.893 321.854C611.197 309.129 613.849 295.527 613.849 281.046C613.849 266.566 611.197 252.964 605.893 240.238C600.59 227.513 593.298 216.324 584.016 206.671C574.735 197.017 563.907 189.558 551.532 184.292C539.158 178.588 525.899 175.736 511.756 175.736C497.614 175.736 484.355 178.588 471.98 184.292C459.605 189.558 448.777 197.017 439.496 206.671C430.657 216.324 423.586 227.513 418.282 240.238C412.979 252.964 410.327 266.566 410.327 281.046C410.327 295.527 412.979 309.129 418.282 321.854C423.586 334.579 430.657 345.769 439.496 355.422C448.777 365.076 459.605 372.755 471.98 378.459C484.355 383.725 497.614 386.357 511.756 386.357Z" fill="#EDEDED"/>
<path d="M0 116.499H74.9119L163.083 354.107L249.927 116.499H323.513L198.218 445.596H127.284L0 116.499Z" fill="#EDEDED"/>
<path d="M1992.36 97.7243C1985.57 97.7243 1979.22 96.4322 1973.31 93.848C1967.39 91.35 1962.22 87.9044 1957.78 83.5112C1953.43 79.1181 1949.95 73.9928 1947.34 68.1352C1944.82 62.2777 1943.56 55.9895 1943.56 49.2706C1943.56 42.5517 1944.82 36.2635 1947.34 30.4059C1949.95 24.5484 1953.43 19.4231 1957.78 15.0299C1962.22 10.6368 1967.39 7.19121 1973.31 4.69315C1979.22 2.10896 1985.57 0.81686 1992.36 0.81686C1999.15 0.81686 2005.5 2.10896 2011.41 4.69315C2017.33 7.19121 2022.46 10.6368 2026.81 15.0299C2031.25 19.4231 2034.73 24.5484 2037.25 30.4059C2039.86 36.2635 2041.16 42.5517 2041.16 49.2706C2041.16 55.9895 2039.86 62.2777 2037.25 68.1352C2034.73 73.9928 2031.25 79.1181 2026.81 83.5112C2022.46 87.9044 2017.33 91.35 2011.41 93.848C2005.5 96.4322 1999.15 97.7243 1992.36 97.7243ZM1992.36 86.4831C1997.58 86.4831 2002.41 85.4924 2006.84 83.5112C2011.37 81.53 2015.28 78.8597 2018.59 75.5002C2021.89 72.1408 2024.5 68.2214 2026.42 63.7421C2028.33 59.1767 2029.29 54.3528 2029.29 49.2706C2029.29 44.1883 2028.33 39.4076 2026.42 34.9283C2024.5 30.3629 2021.89 26.4004 2018.59 23.041C2015.28 19.6815 2011.37 17.0112 2006.84 15.0299C2002.41 13.0487 1997.58 12.0581 1992.36 12.0581C1987.14 12.0581 1982.27 13.0487 1977.75 15.0299C1973.22 17.0112 1969.31 19.6815 1966 23.041C1962.78 26.4004 1960.22 30.3629 1958.3 34.9283C1956.48 39.4076 1955.56 44.1883 1955.56 49.2706C1955.56 54.3528 1956.48 59.1767 1958.3 63.7421C1960.22 68.2214 1962.78 72.1408 1966 75.5002C1969.31 78.8597 1973.22 81.53 1977.75 83.5112C1982.27 85.4924 1987.14 86.4831 1992.36 86.4831ZM1973.18 24.4623H1994.06C1997.28 24.4623 2000.19 24.936 2002.8 25.8836C2005.41 26.745 2007.58 27.9509 2009.32 29.5015C2011.06 31.052 2012.41 32.8179 2013.37 34.7991C2014.33 36.7803 2014.8 38.8477 2014.8 41.0012C2014.8 44.619 2013.93 47.8062 2012.19 50.5627C2010.54 53.3192 2007.93 55.3004 2004.37 56.5063L2014.54 72.7868H2000.71L1987.53 49.3998H1993.14C1995.67 49.3998 1997.8 48.7537 1999.54 47.4616C2001.28 46.0834 2002.15 44.1453 2002.15 41.6472C2002.15 39.063 2001.23 37.2541 1999.41 36.2204C1997.67 35.1867 1995.54 34.6699 1993.01 34.6699H1985.44V72.7868H1973.18V24.4623Z" fill="#EDEDED"/>
<g clip-path="url(#clip0_328_193)">
<path d="M2398.85 52.6222L2135.34 0C2102.67 0 2076.19 26.4878 2076.19 59.1525V360.49C2076.19 393.155 2102.67 419.643 2135.34 419.643L2274.99 391.755C2274.99 391.755 2357.57 384.989 2425.3 452.177C2425.3 452.177 2426.63 403.062 2426.71 355.884C2447.27 343.752 2458 325.941 2458 307.868V111.775C2458 87.9436 2430.75 60.121 2398.85 52.6222ZM2090.98 59.1525C2090.98 35.1513 2110.14 15.5341 2133.98 14.8012L2395.69 67.0701C2422.46 73.4695 2443.2 96.3061 2443.2 111.775V239.633C2443.2 253.047 2434.46 265.899 2419.18 274.915L2411.92 279.208V287.636C2411.86 310.682 2411.53 334.343 2411.19 352.389C2356.71 312.082 2299.56 308.535 2281.47 308.535C2276.83 308.535 2274.08 308.745 2273.76 308.771L2272.91 308.85L2133.96 336.594C2110.11 335.861 2090.95 316.257 2090.95 292.242V59.1525H2090.98Z" fill="#593CFB"/>
<path d="M2363.32 171.244V153.528H2375.56V136.677L2395.29 125.875V153.528H2408.83V171.244H2395.29V194.144C2395.29 205.379 2396.73 207.107 2408.83 207.107V225.543H2405.95C2383.05 225.543 2375.56 217.765 2375.56 194.288V171.244H2363.32Z" fill="#593CFB"/>
<path d="M2313.2 226.981C2297.93 226.981 2278.49 214.882 2278.49 189.533C2278.49 164.04 2297.21 152.086 2313.49 152.086C2322.85 152.086 2330.19 155.543 2334.95 160.584V153.526H2354.68V225.54H2334.95V217.475C2330.19 223.092 2322.56 226.981 2313.2 226.981ZM2317.09 208.833C2327.74 208.833 2335.52 200.047 2335.52 189.389C2335.52 178.731 2327.74 170.089 2317.09 170.089C2306.14 170.089 2297.79 178.299 2297.79 189.389C2297.79 200.479 2306.14 208.833 2317.09 208.833Z" fill="#593CFB"/>
<path d="M2203.85 225.539V120.398H2223.44V161.446C2228.19 155.685 2235.1 152.085 2243.31 152.085C2260.31 152.085 2270.54 163.031 2270.54 181.61V225.539H2250.52V184.347C2250.52 174.553 2246.05 168.936 2237.27 168.936C2229.78 168.936 2223.58 174.121 2223.58 186.219V225.539H2203.85Z" fill="#593CFB"/>
<path d="M2161.92 226.981C2141.18 226.981 2124.61 210.273 2124.61 189.533C2124.61 168.793 2141.18 152.086 2161.92 152.086C2178.33 152.086 2191.01 161.448 2196.63 174.842L2179.05 182.332C2176.32 175.563 2169.69 170.81 2162.06 170.81C2151.69 170.81 2143.62 179.163 2143.62 189.533C2143.62 199.903 2151.69 208.257 2162.06 208.257C2169.69 208.257 2176.32 203.504 2179.05 196.735L2196.63 204.224C2191.01 217.619 2178.33 226.981 2161.92 226.981Z" fill="#593CFB"/>
</g>
<defs>
<clipPath id="clip0_328_193">
<rect width="381.809" height="452.177" fill="white" transform="translate(2076.19)"/>
</clipPath>
</defs>
</svg>
